<?xml version="1.0" standalone="no"?>
<!DOCTYPE svg PUBLIC "-//W3C//DTD SVG 20010904//EN"
 "http://www.w3.org/TR/2001/REC-SVG-20010904/DTD/svg10.dtd">
<svg version="1.0" xmlns="http://www.w3.org/2000/svg"
 width="300.000000pt" height="300.000000pt" viewBox="0 0 300.000000 300.000000"
 preserveAspectRatio="xMidYMid meet">
<metadata>
Created by potrace 1.14, written by Peter Selinger 2001-2017
</metadata>
<g transform="translate(0.000000,300.000000) scale(0.100000,-0.100000)"
fill="#000000" stroke="none">
<path d="M0 1500 l0 -1500 1500 0 1500 0 0 1500 0 1500 -1500 0 -1500 0 0
-1500z m1760 1024 c278 -93 485 -353 508 -638 14 -184 -9 -328 -73 -456 -41
-80 -69 -119 -143 -193 -126 -129 -310 -216 -454 -217 l-48 0 0 240 c0 220 1
241 18 246 87 28 150 81 189 159 50 96 32 226 -42 313 -30 36 -120 92 -147 92
-17 0 -18 18 -18 246 l0 247 67 -7 c37 -4 101 -18 143 -32z"/>
</g>
</svg>
